<?xml version="1.0" encoding="UTF-8" standalone="no"?>
<!DOCTYPE svg PUBLIC "-//W3C//DTD SVG 1.1//EN" "http://www.w3.org/Graphics/SVG/1.1/DTD/svg11.dtd">
<svg xmlns="http://www.w3.org/2000/svg" version="1.1" viewBox="0.00 0.00 500.00 500.00">
<g stroke-width="2.00" fill="none" stroke-linecap="butt">
<path stroke="#893c21" vector-effect="non-scaling-stroke" d="
  M 255.26 54.29
  Q 253.37 50.89 250.19 48.24"
/>
<path stroke="#7f3d01" vector-effect="non-scaling-stroke" d="
  M 228.37 47.57
  Q 225.51 43.21 221.76 43.70
  Q 220.47 43.87 217.81 46.46"
/>
<path stroke="#661201" vector-effect="non-scaling-stroke" d="
  M 347.34 184.38
  Q 347.19 184.14 346.85 184.20
  Q 346.46 184.26 346.17 183.98
  L 338.59 176.58"
/>
<path stroke="#742000" vector-effect="non-scaling-stroke" d="
  M 338.59 176.58
  L 330.26 168.24"
/>
<path stroke="#7f3d01" vector-effect="non-scaling-stroke" d="
  M 330.26 168.24
  L 316.06 154.22"
/>
<path stroke="#7f3d01" vector-effect="non-scaling-stroke" d="
  M 284.09 187.52
  L 293.81 198.19"
/>
<path stroke="#742000" vector-effect="non-scaling-stroke" d="
  M 293.81 198.19
  L 304.02 208.64"
/>
<path stroke="#661201" vector-effect="non-scaling-stroke" d="
  M 304.02 208.64
  L 313.72 218.30"
/>
<path stroke="#242d33" vector-effect="non-scaling-stroke" d="
  M 280.17 200.88
  Q 280.30 200.52 280.25 200.17
  Q 280.20 199.89 279.90 199.59
  Q 260.49 180.60 242.56 162.94
  Q 242.02 162.41 241.47 162.95
  L 199.62 204.65
  A 1.22 1.22 0.0 0 0 199.62 206.39
  L 231.46 237.69
  Q 232.65 238.85 233.83 237.68
  L 237.11 234.39
  Q 238.35 233.15 237.10 231.92
  L 210.89 206.12
  A 0.86 0.85 45.2 0 1 210.89 204.91
  L 241.73 174.22
  A 0.75 0.75 0.0 0 1 242.78 174.21
  L 275.36 205.83"
/>
<path stroke="#242d33" vector-effect="non-scaling-stroke" d="
  M 253.00 304.10
  L 226.78 330.54
  A 1.18 1.17 44.3 0 0 226.81 332.21
  L 231.39 336.59
  A 0.90 0.89 43.8 0 0 232.64 336.57
  Q 245.02 324.03 257.68 311.44
  Q 258.56 310.57 258.30 309.46"
/>
<path stroke="#7f3d01" vector-effect="non-scaling-stroke" d="
  M 275.93 323.52
  Q 272.68 325.76 270.55 328.60
  A 1.47 1.46 41.3 0 0 270.68 330.50
  L 277.28 337.26"
/>
<path stroke="#742000" vector-effect="non-scaling-stroke" d="
  M 277.28 337.26
  C 277.32 337.82 277.18 338.46 276.77 338.87
  Q 273.61 341.97 270.63 345.05
  A 1.06 1.06 0.0 0 0 270.62 346.52
  L 276.92 353.13
  A 0.54 0.54 0.0 0 0 277.69 353.14
  L 285.07 345.85
  A 0.64 0.63 -44.0 0 0 285.09 344.96
  C 283.52 343.32 279.09 339.42 278.88 337.20"
/>
<path stroke="#7f3d01" vector-effect="non-scaling-stroke" d="
  M 278.88 337.20
  L 284.02 331.53"
/>
<path stroke="#151d21" vector-effect="non-scaling-stroke" d="
  M 300.17 347.36
  L 281.83 365.68
  Q 281.09 366.42 281.82 367.15
  C 287.52 372.88 290.82 378.15 291.12 386.47
  C 291.20 388.59 290.42 390.45 290.66 392.64
  A 0.58 0.57 79.4 0 0 291.38 393.14
  Q 292.34 392.89 293.32 393.02"
/>
<path stroke="#742000" vector-effect="non-scaling-stroke" d="
  M 258.79 355.17
  L 266.98 347.25
  A 1.56 1.55 -43.1 0 0 267.06 345.09
  L 260.23 337.50"
/>
<path stroke="#742000" vector-effect="non-scaling-stroke" d="
  M 255.06 342.38
  L 250.61 347.11"
/>
<path stroke="#151d21" vector-effect="non-scaling-stroke" d="
  M 220.33 338.32
  Q 220.49 337.40 219.75 336.79
  Q 217.31 334.80 215.36 332.39
  A 1.13 1.13 0.0 0 0 213.66 332.32
  Q 202.00 344.56 190.33 356.57
  Q 188.60 358.34 188.97 359.88"
/>
<path stroke="#7f3d01" vector-effect="non-scaling-stroke" d="
  M 192.47 341.54
  Q 192.61 341.53 192.75 341.50
  Q 193.02 341.46 193.21 341.25
  L 200.16 333.41"
/>
<path stroke="#0d1214" vector-effect="non-scaling-stroke" d="
  M 200.16 333.41
  L 206.57 326.92
  A 1.18 1.17 46.3 0 0 206.60 325.30
  L 201.25 319.49
  A 0.62 0.61 -46.2 0 0 200.33 319.51
  L 193.99 327.04"
/>
<path stroke="#7f3d01" vector-effect="non-scaling-stroke" d="
  M 193.99 327.04
  L 185.71 334.58"
/>
<path stroke="#0d1214" vector-effect="non-scaling-stroke" d="
  M 148.20 347.67
  L 142.39 342.49"
/>
<path stroke="#7f3d01" vector-effect="non-scaling-stroke" d="
  M 216.23 125.71
  L 222.23 131.83"
/>
<path stroke="#742000" vector-effect="non-scaling-stroke" d="
  M 222.23 131.83
  L 231.22 140.60"
/>
<path stroke="#661201" vector-effect="non-scaling-stroke" d="
  M 231.22 140.60
  L 236.58 145.86
  Q 236.95 146.23 237.32 145.86
  L 271.66 111.37
  Q 272.03 111.00 271.74 110.56
  Q 270.34 108.37 268.50 106.96"
/>
<path stroke="#742000" vector-effect="non-scaling-stroke" d="
  M 268.50 106.96
  L 259.28 97.48"
/>
<path stroke="#7f3d01" vector-effect="non-scaling-stroke" d="
  M 259.28 97.48
  Q 258.99 97.19 258.86 96.79"
/>
<path stroke="#7f3d01" vector-effect="non-scaling-stroke" d="
  M 250.73 88.71
  Q 250.37 88.50 249.94 88.93
  Q 232.10 106.60 214.36 124.36"
/>
<path stroke="#da3201" vector-effect="non-scaling-stroke" d="
  M 338.59 176.58
  Q 335.50 177.02 333.12 179.37
  Q 318.52 193.83 304.02 208.64"
/>
<path stroke="#f35c01" vector-effect="non-scaling-stroke" d="
  M 278.88 337.20
  L 277.28 337.26"
/>
<path stroke="#f35c01" vector-effect="non-scaling-stroke" d="
  M 259.28 97.48
  Q 259.18 97.61 259.14 97.71
  Q 259.09 97.85 258.94 97.86
  Q 257.39 97.97 256.32 99.06
  Q 248.64 106.95 245.42 110.19
  Q 236.39 119.28 225.94 129.63
  C 225.29 130.28 224.08 130.63 223.61 131.50
  Q 223.32 132.03 222.23 131.83"
/>
<path stroke="#da3201" vector-effect="non-scaling-stroke" d="
  M 268.50 106.96
  L 234.15 141.01
  Q 233.29 141.86 232.39 141.04
  Q 232.03 140.72 231.22 140.60"
/>
<path stroke="#f35c01" vector-effect="non-scaling-stroke" d="
  M 330.26 168.24
  Q 325.95 165.76 323.98 167.73
  Q 308.89 182.78 293.81 198.19"
/>
<path stroke="#8b4e15" vector-effect="non-scaling-stroke" d="
  M 200.16 333.41
  L 193.99 327.04"
/>
<path stroke="#893c21" vector-effect="non-scaling-stroke" d="
  M 305.49 380.77
  Q 300.81 376.92 299.16 371.82
  Q 295.47 360.47 303.87 351.21"
/>
<path stroke="#945922" vector-effect="non-scaling-stroke" d="
  M 394.94 74.74
  Q 392.71 71.30 389.45 69.38"
/>
<path stroke="#742000" vector-effect="non-scaling-stroke" d="
  M 166.44 74.42
  L 166.25 111.30"
/>
<path stroke="#7b2d01" vector-effect="non-scaling-stroke" d="
  M 151.45 112.77
  C 145.57 113.88 140.21 115.32 138.27 121.73
  C 137.23 125.19 137.62 130.07 137.79 134.04"
/>
<path stroke="#a36a34" vector-effect="non-scaling-stroke" d="
  M 408.52 112.87
  L 407.39 110.16
  Q 407.19 109.69 406.75 109.44
  L 404.22 107.99"
/>
<path stroke="#242d33" vector-effect="non-scaling-stroke" d="
  M 421.42 114.90
  L 421.37 121.00
  A 0.03 0.02 31.7 0 0 421.38 121.02
  Q 421.44 121.37 421.73 121.32
  Q 422.17 121.25 422.41 120.88
  Q 424.00 118.49 426.53 117.56"
/>
<path stroke="#242d33" vector-effect="non-scaling-stroke" d="
  M 426.80 128.88
  L 420.84 124.81
  A 1.01 1.01 0.0 0 0 419.65 124.86
  L 414.12 129.35"
/>
<path stroke="#883e14" vector-effect="non-scaling-stroke" d="
  M 127.98 150.87
  L 118.17 151.04"
/>
<path stroke="#7b2d01" vector-effect="non-scaling-stroke" d="
  M 118.17 151.04
  Q 116.64 148.32 114.37 146.39
  Q 112.84 145.09 110.88 146.12
  Q 107.92 147.66 106.70 150.15"
/>
<path stroke="#ef4c01" vector-effect="non-scaling-stroke" d="
  M 106.70 150.15
  Q 101.75 151.40 96.01 150.51"
/>
<path stroke="#813114" vector-effect="non-scaling-stroke" d="
  M 107.03 155.14
  L 106.87 166.56"
/>
<path stroke="#0d1214" vector-effect="non-scaling-stroke" d="
  M 118.17 151.04
  Q 116.63 154.97 113.11 156.97
  Q 112.67 157.22 112.16 157.16
  C 110.22 156.93 108.97 155.60 107.03 155.14"
/>
<path stroke="#742000" vector-effect="non-scaling-stroke" d="
  M 107.03 155.14
  Q 106.43 152.69 106.70 150.15"
/>
<path stroke="#313f46" vector-effect="non-scaling-stroke" d="
  M 433.08 151.20
  Q 431.76 152.57 430.51 153.84
  Q 429.16 155.23 427.64 155.92
  Q 425.98 156.68 424.26 157.23"
/>
<path stroke="#242d33" vector-effect="non-scaling-stroke" d="
  M 424.26 157.23
  C 420.64 151.87 414.03 150.77 409.28 155.14
  Q 406.15 158.01 406.44 162.48
  Q 406.78 167.89 412.53 170.87"
/>
<path stroke="#313f46" vector-effect="non-scaling-stroke" d="
  M 412.53 170.87
  L 405.39 181.22"
/>
<path stroke="#a36a34" vector-effect="non-scaling-stroke" d="
  M 396.60 171.66
  Q 396.19 171.32 395.96 170.83"
/>
<path stroke="#0d1214" vector-effect="non-scaling-stroke" d="
  M 412.53 170.87
  C 420.93 173.01 427.78 165.56 424.26 157.23"
/>
<path stroke="#b46a51" vector-effect="non-scaling-stroke" d="
  M 358.37 211.24
  Q 357.32 211.02 356.23 211.77"
/>
<path stroke="#893c21" vector-effect="non-scaling-stroke" d="
  M 435.48 264.19
  Q 435.25 255.20 435.37 246.81
  Q 435.41 244.43 434.91 243.04
  C 433.39 238.80 427.74 238.70 425.30 241.96
  Q 424.24 243.38 424.28 247.41
  Q 424.35 255.68 423.91 264.11"
/>
<path stroke="#742000" vector-effect="non-scaling-stroke" d="
  M 389.82 313.17
  Q 387.33 315.72 386.54 320.02"
/>
<path stroke="#742000" vector-effect="non-scaling-stroke" d="
  M 287.03 307.05
  Q 296.67 316.93 306.40 326.54
  Q 306.57 326.70 306.78 326.75
  Q 307.08 326.82 307.21 326.74"
/>
<path stroke="#404b51" vector-effect="non-scaling-stroke" d="
  M 323.31 310.68
  Q 323.42 309.36 321.64 308.95"
/>
<path stroke="#0d1214" vector-effect="non-scaling-stroke" d="
  M 319.87 301.73
  L 323.98 298.77
  A 2.12 2.12 0.0 0 0 324.21 295.52
  L 317.59 289.14
  A 0.98 0.98 0.0 0 0 316.21 289.16
  L 311.31 294.13"
/>
<path stroke="#404b51" vector-effect="non-scaling-stroke" d="
  M 311.31 294.13
  L 305.09 299.91
  Q 304.67 300.29 304.58 300.85
  L 303.74 305.78
  A 2.23 2.21 25.6 0 0 304.48 307.85
  Q 307.69 310.65 309.08 315.07"
/>
<path stroke="#742000" vector-effect="non-scaling-stroke" d="
  M 309.08 315.07
  L 293.41 300.50"
/>
<path stroke="#4c5c65" vector-effect="non-scaling-stroke" d="
  M 315.51 304.92
  Q 310.96 305.67 310.85 302.52
  C 310.78 300.78 313.02 297.84 315.33 299.07
  Q 315.69 299.26 316.06 299.38
  Q 317.39 299.82 316.55 298.71
  Q 314.07 295.45 311.31 294.13"
/>
<path stroke="#b46a51" vector-effect="non-scaling-stroke" d="
  M 314.22 319.67
  Q 311.84 316.45 309.08 315.07"
/>
<path stroke="#742000" vector-effect="non-scaling-stroke" d="
  M 406.83 324.96
  Q 405.44 327.91 402.07 329.92"
/>
<path stroke="#813114" vector-effect="non-scaling-stroke" d="
  M 152.36 369.73
  L 146.68 364.21"
/>
<path stroke="#242d33" vector-effect="non-scaling-stroke" d="
  M 218.64 76.22
  A 8.44 8.44 0.0 0 0 210.20 67.78
  A 8.44 8.44 0.0 0 0 201.76 76.22
  A 8.44 8.44 0.0 0 0 210.20 84.66
  A 8.44 8.44 0.0 0 0 218.64 76.22"
/>
<path stroke="#151d21" vector-effect="non-scaling-stroke" d="
  M 199.99 157.51
  L 215.14 172.80
  Q 216.18 173.86 216.21 172.37
  L 216.48 158.02"
/>
<path stroke="#0d1214" vector-effect="non-scaling-stroke" d="
  M 216.48 158.02
  Q 217.38 157.19 218.50 157.23
  Q 225.39 157.45 231.14 157.15
  A 0.85 0.85 0.0 0 0 231.69 155.70
  Q 224.59 148.70 218.28 141.95
  Q 217.85 141.49 216.71 141.02"
/>
<path stroke="#242d33" vector-effect="non-scaling-stroke" d="
  M 216.71 141.02
  Q 216.11 140.31 214.97 141.47
  Q 207.44 149.05 199.82 156.56
  Q 199.66 156.71 199.99 157.51"
/>
<path stroke="#313f46" vector-effect="non-scaling-stroke" d="
  M 216.71 141.02
  L 215.85 157.29"
/>
<path stroke="#394a53" vector-effect="non-scaling-stroke" d="
  M 215.85 157.29
  L 199.99 157.51"
/>
<path stroke="#222e34" vector-effect="non-scaling-stroke" d="
  M 216.48 158.02
  Q 216.20 157.95 215.85 157.29"
/>
<path stroke="#7b2d01" vector-effect="non-scaling-stroke" d="
  M 349.66 156.50
  A 5.63 5.63 0.0 0 0 344.03 150.87
  A 5.63 5.63 0.0 0 0 338.40 156.50
  A 5.63 5.63 0.0 0 0 344.03 162.13
  A 5.63 5.63 0.0 0 0 349.66 156.50"
/>
<path stroke="#0d1214" vector-effect="non-scaling-stroke" d="
  M 193.54 299.93
  Q 195.75 303.59 199.72 306.51"
/>
<path stroke="#242d33" vector-effect="non-scaling-stroke" d="
  M 199.72 306.51
  L 212.25 318.86"
/>
<path stroke="#404b51" vector-effect="non-scaling-stroke" d="
  M 221.07 284.35
  L 215.24 278.75"
/>
<path stroke="#742000" vector-effect="non-scaling-stroke" d="
  M 207.17 271.09
  Q 207.47 270.94 207.32 270.53
  Q 207.22 270.25 206.96 270.09
  Q 205.35 269.14 203.95 268.09
  A 0.64 0.63 -48.9 0 1 203.89 267.13
  L 226.14 244.94
  Q 226.53 244.55 226.14 244.17
  L 221.47 239.52"
/>
<path stroke="#742000" vector-effect="non-scaling-stroke" d="
  M 211.28 230.14
  Q 209.83 222.39 202.05 220.68"
/>
<path stroke="#7f3d01" vector-effect="non-scaling-stroke" d="
  M 183.77 203.47
  Q 183.99 202.98 183.77 202.76
  Q 176.85 195.80 169.97 188.78
  Q 169.73 188.54 169.04 188.35"
/>
<path stroke="#661201" vector-effect="non-scaling-stroke" d="
  M 215.64 292.20
  C 211.96 293.29 209.29 297.10 206.62 299.68"
/>
<path stroke="#0d1214" vector-effect="non-scaling-stroke" d="
  M 206.62 299.68
  Q 205.95 299.44 205.55 298.84
  C 204.49 297.28 202.64 295.97 201.18 294.77
  C 200.59 294.28 199.94 294.19 199.22 294.10"
/>
<path stroke="#742000" vector-effect="non-scaling-stroke" d="
  M 207.88 284.97
  L 199.49 293.45"
/>
<path stroke="#742000" vector-effect="non-scaling-stroke" d="
  M 202.46 264.11
  Q 212.34 261.52 209.91 251.08"
/>
<path stroke="#742000" vector-effect="non-scaling-stroke" d="
  M 194.46 236.27
  Q 194.18 235.11 193.11 233.87"
/>
<path stroke="#313f46" vector-effect="non-scaling-stroke" d="
  M 206.65 299.74
  L 199.72 306.51"
/>
<path stroke="#661201" vector-effect="non-scaling-stroke" d="
  M 220.01 296.84
  L 211.96 304.92"
/>
<path stroke="#8a3f33" vector-effect="non-scaling-stroke" d="
  M 211.96 304.92
  L 206.65 299.74"
/>
<path stroke="#732414" vector-effect="non-scaling-stroke" d="
  M 206.65 299.74
  Q 206.37 300.21 206.62 299.68"
/>
<path stroke="#404b51" vector-effect="non-scaling-stroke" d="
  M 215.43 291.22
  Q 214.88 291.71 214.28 291.20
  Q 212.75 289.92 208.55 285.67
  Q 208.40 285.52 208.36 285.34
  Q 208.30 285.10 208.31 284.95"
/>
<path stroke="#242d33" vector-effect="non-scaling-stroke" d="
  M 219.29 312.14
  L 211.96 304.92"
/>
<path stroke="#742000" vector-effect="non-scaling-stroke" d="
  M 302.02 219.50
  A 0.69 0.69 0.0 0 0 302.03 218.54
  L 296.76 212.98
  A 0.69 0.69 0.0 0 0 295.77 212.96
  L 276.36 232.47
  A 0.69 0.69 0.0 0 0 276.36 233.45
  L 281.91 239.02
  A 0.69 0.69 0.0 0 0 282.89 239.02
  L 302.02 219.50"
/>
<path stroke="#242d33" vector-effect="non-scaling-stroke" d="
  M 392.75 237.89
  A 8.85 8.85 0.0 0 0 383.90 229.04
  A 8.85 8.85 0.0 0 0 375.05 237.89
  A 8.85 8.85 0.0 0 0 383.90 246.74
  A 8.85 8.85 0.0 0 0 392.75 237.89"
/>
<path stroke="#7f3d01" vector-effect="non-scaling-stroke" d="
  M 391.56 175.61
  A 7.04 7.04 0.0 0 0 384.52 168.57
  A 7.04 7.04 0.0 0 0 377.48 175.61
  A 7.04 7.04 0.0 0 0 384.52 182.65
  A 7.04 7.04 0.0 0 0 391.56 175.61"
/>
<path stroke="#7f3d01" vector-effect="non-scaling-stroke" d="
  M 136.25 188.41
  A 1.03 1.03 0.0 0 0 137.77 188.41
  L 145.55 179.96
  A 1.03 1.03 0.0 0 0 145.51 178.53
  L 137.48 170.57
  A 1.03 1.03 0.0 0 0 136.03 170.58
  L 128.36 178.29
  A 1.03 1.03 0.0 0 0 128.33 179.71
  L 136.25 188.41"
/>
<path stroke="#242d33" vector-effect="non-scaling-stroke" d="
  M 368.5013 279.1104
  A 0.74 0.74 0.0 0 0 368.4995 278.0639
  L 347.3201 256.9584
  A 0.74 0.74 0.0 0 0 346.2736 256.9602
  L 324.9987 278.3096
  A 0.74 0.74 0.0 0 0 325.0005 279.3561
  L 346.1799 300.4616
  A 0.74 0.74 0.0 0 0 347.2264 300.4598
  L 368.5013 279.1104"
/>
<path stroke="#313f46" vector-effect="non-scaling-stroke" d="
  M 351.5310 271.4800
  A 6.96 6.96 0.0 0 0 341.6893 271.3254
  L 339.0609 273.8725
  A 6.96 6.96 0.0 0 0 338.9063 283.7142
  L 341.5090 286.4000
  A 6.96 6.96 0.0 0 0 351.3507 286.5546
  L 353.9791 284.0075
  A 6.96 6.96 0.0 0 0 354.1337 274.1658
  L 351.5310 271.4800"
/>
<path stroke="#0d1214" vector-effect="non-scaling-stroke" d="
  M 343.2226 283.9307
  A 5.99 5.68 123.4 0 0 351.2619 282.0567
  A 5.99 5.68 123.4 0 0 349.8174 273.9293
  A 5.99 5.68 123.4 0 0 341.7781 275.8033
  A 5.99 5.68 123.4 0 0 343.2226 283.9307"
/>
</g>
<circle fill="#2a3941" cx="277.71" cy="43.21" r="3.76"/>
<path fill="#e83f00" d="
  M 255.26 54.29
  Q 253.37 50.89 250.19 48.24
  L 257.39 40.83
  A 0.74 0.73 45.3 0 1 258.45 40.84
  L 262.95 45.56
  Q 263.48 46.12 262.94 46.66
  L 255.26 54.29
  Z"
/>
<path fill="#fd7902" d="
  M 228.37 47.57
  Q 225.51 43.21 221.76 43.70
  Q 220.47 43.87 217.81 46.46
  A 6.00 5.33 88.0 0 1 219.88 42.65
  A 5.98 5.31 88.0 0 1 228.37 47.57
  Z"
/>
<path fill="#000000" d="
  M 228.37 47.57
  A 5.98 5.32 88.0 0 1 221.13 53.03
  A 5.98 5.32 88.2 0 1 217.81 46.46
  Q 220.47 43.87 221.76 43.70
  Q 225.51 43.21 228.37 47.57
  Z"
/>
<path fill="#2a3941" d="
  M 250.19 48.24
  Q 253.37 50.89 255.26 54.29
  L 238.79 70.49
  Q 237.51 71.76 236.23 70.49
  L 233.25 67.56
  Q 232.01 66.33 233.25 65.10
  L 250.19 48.24
  Z"
/>
<circle fill="#000000" cx="287.95" cy="54.23" r="5.19"/>
<path fill="#485a65" d="
  M 211.0584 97.2221
  A 1.24 1.24 0.0 0 1 209.3048 97.2252
  L 189.6979 77.6867
  A 1.24 1.24 0.0 0 1 189.6949 75.9330
  L 209.2616 56.2979
  A 1.24 1.24 0.0 0 1 211.0152 56.2948
  L 230.6221 75.8333
  A 1.24 1.24 0.0 0 1 230.6251 77.5870
  L 211.0584 97.2221
  Z
  M 218.64 76.22
  A 8.44 8.44 0.0 0 0 210.20 67.78
  A 8.44 8.44 0.0 0 0 201.76 76.22
  A 8.44 8.44 0.0 0 0 210.20 84.66
  A 8.44 8.44 0.0 0 0 218.64 76.22
  Z"
/>
<path fill="#000000" d="
  M 347.34 184.38
  Q 347.19 184.14 346.85 184.20
  Q 346.46 184.26 346.17 183.98
  L 338.59 176.58
  L 330.26 168.24
  L 316.06 154.22
  Q 315.81 153.08 314.48 151.77
  Q 298.79 136.16 282.72 120.05
  A 0.91 0.91 0.0 0 0 281.44 120.05
  L 246.74 154.54
  A 0.54 0.54 0.0 0 0 246.74 155.31
  L 280.92 189.70
  Q 281.29 190.06 281.67 189.72
  L 284.09 187.52
  L 293.81 198.19
  L 304.02 208.64
  L 313.72 218.30
  L 288.17 243.57
  A 0.93 0.92 -45.2 0 0 288.17 244.88
  L 310.65 266.95
  A 1.10 1.10 0.0 0 1 310.66 268.51
  L 273.33 305.99
  Q 272.45 306.88 271.55 306.01
  L 232.37 267.82
  Q 231.21 266.68 232.33 265.50
  Q 259.71 236.92 288.26 208.65
  A 0.40 0.40 0.0 0 0 288.26 208.08
  L 281.50 201.41
  Q 281.13 201.06 280.63 200.97
  L 280.17 200.88
  Q 280.30 200.52 280.25 200.17
  Q 280.20 199.89 279.90 199.59
  Q 260.49 180.60 242.56 162.94
  Q 242.02 162.41 241.47 162.95
  L 199.62 204.65
  A 1.22 1.22 0.0 0 0 199.62 206.39
  L 231.46 237.69
  Q 232.65 238.85 233.83 237.68
  L 237.11 234.39
  Q 238.35 233.15 237.10 231.92
  L 210.89 206.12
  A 0.86 0.85 45.2 0 1 210.89 204.91
  L 241.73 174.22
  A 0.75 0.75 0.0 0 1 242.78 174.21
  L 275.36 205.83
  L 215.34 265.85
  A 1.01 1.00 44.8 0 0 215.35 267.29
  L 253.00 304.10
  L 226.78 330.54
  A 1.18 1.17 44.3 0 0 226.81 332.21
  L 231.39 336.59
  A 0.90 0.89 43.8 0 0 232.64 336.57
  Q 245.02 324.03 257.68 311.44
  Q 258.56 310.57 258.30 309.46
  L 270.57 321.69
  Q 271.05 322.17 271.61 321.81
  Q 272.07 321.51 272.38 321.04
  Q 272.75 320.49 273.23 320.95
  L 275.93 323.52
  Q 272.68 325.76 270.55 328.60
  A 1.47 1.46 41.3 0 0 270.68 330.50
  L 277.28 337.26
  C 277.32 337.82 277.18 338.46 276.77 338.87
  Q 273.61 341.97 270.63 345.05
  A 1.06 1.06 0.0 0 0 270.62 346.52
  L 276.92 353.13
  A 0.54 0.54 0.0 0 0 277.69 353.14
  L 285.07 345.85
  A 0.64 0.63 -44.0 0 0 285.09 344.96
  C 283.52 343.32 279.09 339.42 278.88 337.20
  L 284.02 331.53
  L 300.17 347.36
  L 281.83 365.68
  Q 281.09 366.42 281.82 367.15
  C 287.52 372.88 290.82 378.15 291.12 386.47
  C 291.20 388.59 290.42 390.45 290.66 392.64
  A 0.58 0.57 79.4 0 0 291.38 393.14
  Q 292.34 392.89 293.32 393.02
  Q 288.81 397.74 284.77 402.77
  Q 282.62 405.45 277.47 408.07
  C 269.01 412.36 258.50 411.13 251.17 405.40
  C 244.16 399.93 240.48 390.57 242.30 381.63
  Q 244.68 369.92 255.33 364.32
  C 258.14 362.85 261.48 362.27 264.60 361.66
  A 0.46 0.45 60.9 0 0 264.82 360.88
  L 258.79 355.17
  L 266.98 347.25
  A 1.56 1.55 -43.1 0 0 267.06 345.09
  L 260.23 337.50
  L 267.90 330.21
  A 1.15 1.15 0.0 0 0 267.92 328.56
  L 260.28 321.02
  A 0.69 0.68 -45.3 0 0 259.32 321.03
  L 247.08 333.33
  A 0.63 0.62 -44.7 0 0 247.07 334.21
  L 255.06 342.38
  L 250.61 347.11
  L 242.32 339.22
  A 0.98 0.98 0.0 0 0 240.95 339.23
  L 232.50 347.68
  Q 231.80 348.39 231.07 347.70
  Q 225.81 342.69 221.44 338.15
  Q 221.24 337.93 220.94 337.95
  Q 220.59 337.96 220.33 338.32
  Q 220.49 337.40 219.75 336.79
  Q 217.31 334.80 215.36 332.39
  A 1.13 1.13 0.0 0 0 213.66 332.32
  Q 202.00 344.56 190.33 356.57
  Q 188.60 358.34 188.97 359.88
  Q 187.40 360.28 186.73 360.96
  Q 168.32 379.60 150.84 397.01
  C 148.96 398.89 149.21 399.80 149.31 402.12
  Q 149.42 405.03 147.73 407.71
  C 142.83 415.42 131.31 413.67 129.04 404.82
  Q 127.71 399.65 131.78 395.24
  Q 135.97 390.69 142.65 392.60
  A 0.99 0.98 -60.3 0 0 143.63 392.33
  L 192.47 341.54
  Q 192.61 341.53 192.75 341.50
  Q 193.02 341.46 193.21 341.25
  L 200.16 333.41
  L 206.57 326.92
  A 1.18 1.17 46.3 0 0 206.60 325.30
  L 201.25 319.49
  A 0.62 0.61 -46.2 0 0 200.33 319.51
  L 193.99 327.04
  L 185.71 334.58
  L 180.12 328.76
  A 0.82 0.82 0.0 0 1 180.13 327.61
  L 193.88 313.67
  A 0.89 0.88 -45.2 0 0 193.88 312.42
  L 189.03 307.57
  A 0.87 0.86 44.5 0 0 187.81 307.57
  L 148.20 347.67
  L 142.39 342.49
  Q 143.65 339.40 146.14 336.89
  Q 162.69 320.31 179.25 303.76
  Q 180.07 302.94 180.69 301.93
  Q 181.31 300.93 180.48 300.10
  L 174.95 294.60
  A 0.76 0.76 0.0 0 0 173.88 294.60
  L 142.80 325.25
  Q 141.66 326.37 140.57 325.21
  L 136.78 321.19
  Q 135.64 319.98 136.82 318.80
  L 166.81 288.63
  Q 167.61 287.82 166.79 287.04
  L 139.27 260.36
  Q 138.87 259.97 138.45 260.36
  C 130.36 267.85 117.95 269.44 108.30 263.79
  A 1.44 1.42 -52.1 0 0 106.56 264.02
  L 93.12 277.39
  A 2.09 2.07 -25.5 0 0 92.52 279.07
  Q 93.19 285.85 87.39 289.56
  C 80.38 294.05 71.01 289.72 70.59 281.20
  C 70.13 271.88 79.73 267.03 87.19 271.43
  A 0.81 0.80 37.8 0 0 88.17 271.31
  L 100.50 258.74
  A 0.92 0.92 0.0 0 0 100.54 257.50
  Q 94.84 250.88 94.28 242.26
  C 93.07 223.44 108.57 210.96 126.87 214.14
  A 1.94 1.93 -62.3 0 0 128.56 213.61
  L 216.23 125.71
  L 222.23 131.83
  L 231.22 140.60
  L 236.58 145.86
  Q 236.95 146.23 237.32 145.86
  L 271.66 111.37
  Q 272.03 111.00 271.74 110.56
  Q 270.34 108.37 268.50 106.96
  L 259.28 97.48
  Q 258.99 97.19 258.86 96.79
  L 264.55 90.87
  A 1.12 1.11 48.4 0 0 264.63 89.41
  Q 263.32 87.72 263.94 85.44
  C 265.43 79.91 274.19 83.41 271.54 88.27
  Q 270.73 89.77 271.96 90.98
  Q 296.08 114.72 319.72 137.83
  Q 322.44 140.49 324.93 143.25
  A 0.79 0.79 0.0 0 0 326.09 143.27
  L 332.53 136.67
  A 0.71 0.71 0.0 0 0 332.52 135.67
  L 268.27 72.42
  A 0.93 0.93 0.0 0 0 266.95 72.42
  L 250.73 88.71
  Q 250.37 88.50 249.94 88.93
  Q 232.10 106.60 214.36 124.36
  Q 213.37 125.18 212.25 125.97
  C 205.63 130.61 196.98 122.51 200.86 115.79
  Q 204.00 110.34 210.08 112.00
  A 1.83 1.82 30.1 0 0 211.83 111.54
  L 266.59 57.32
  A 1.51 1.51 0.0 0 1 268.71 57.32
  L 349.31 137.42
  A 0.57 0.56 -68.0 0 0 350.27 137.01
  L 350.10 107.19
  Q 350.09 105.98 351.30 105.98
  L 388.27 106.00
  A 1.03 1.03 0.0 0 1 389.30 107.02
  L 389.34 143.80
  A 2.61 2.61 0.0 0 1 388.54 145.68
  L 358.91 174.42
  Q 358.07 175.24 358.90 176.08
  L 392.06 209.70
  A 0.79 0.79 0.0 0 1 391.98 210.89
  Q 389.97 212.43 388.40 214.59
  A 0.73 0.72 -67.9 0 0 388.88 215.74
  Q 391.77 216.17 394.45 217.72
  C 408.55 225.92 410.56 245.52 397.63 255.95
  C 391.11 261.20 379.25 262.19 371.98 257.35
  Q 362.69 251.18 361.50 240.91
  C 360.06 228.59 366.86 218.04 379.14 215.51
  A 0.35 0.35 0.0 0 0 379.33 214.94
  Q 377.54 212.92 375.51 210.96
  Q 361.76 197.63 348.38 184.32
  Q 348.12 184.06 347.89 184.06
  Q 347.56 184.06 347.34 184.38
  Z
  M 380.97 124.84
  A 11.19 11.19 0.0 0 0 369.78 113.65
  A 11.19 11.19 0.0 0 0 358.59 124.84
  A 11.19 11.19 0.0 0 0 369.78 136.03
  A 11.19 11.19 0.0 0 0 380.97 124.84
  Z
  M 199.99 157.51
  L 215.14 172.80
  Q 216.18 173.86 216.21 172.37
  L 216.48 158.02
  Q 217.38 157.19 218.50 157.23
  Q 225.39 157.45 231.14 157.15
  A 0.85 0.85 0.0 0 0 231.69 155.70
  Q 224.59 148.70 218.28 141.95
  Q 217.85 141.49 216.71 141.02
  Q 216.11 140.31 214.97 141.47
  Q 207.44 149.05 199.82 156.56
  Q 199.66 156.71 199.99 157.51
  Z
  M 379.71 144.19
  A 0.31 0.31 0.0 0 0 379.50 143.66
  L 356.99 143.63
  A 0.31 0.31 0.0 0 0 356.77 144.16
  L 367.92 155.21
  A 0.31 0.31 0.0 0 0 368.36 155.21
  L 379.71 144.19
  Z
  M 349.66 156.50
  A 5.63 5.63 0.0 0 0 344.03 150.87
  A 5.63 5.63 0.0 0 0 338.40 156.50
  A 5.63 5.63 0.0 0 0 344.03 162.13
  A 5.63 5.63 0.0 0 0 349.66 156.50
  Z
  M 192.0678 166.2578
  A 0.70 0.70 0.0 0 0 191.0778 166.2561
  L 177.4777 179.8088
  A 0.70 0.70 0.0 0 0 177.4760 180.7987
  L 190.9722 194.3422
  A 0.70 0.70 0.0 0 0 191.9622 194.3439
  L 205.5623 180.7912
  A 0.70 0.70 0.0 0 0 205.5640 179.8013
  L 192.0678 166.2578
  Z
  M 262.6929 205.9622
  A 0.54 0.54 0.0 0 0 262.6915 205.1986
  L 242.7305 185.3071
  A 0.54 0.54 0.0 0 0 241.9668 185.3084
  L 222.0471 205.2978
  A 0.54 0.54 0.0 0 0 222.0485 206.0614
  L 242.0095 225.9529
  A 0.54 0.54 0.0 0 0 242.7732 225.9516
  L 262.6929 205.9622
  Z
  M 193.54 299.93
  Q 195.75 303.59 199.72 306.51
  L 212.25 318.86
  L 218.53 324.93
  A 0.63 0.63 0.0 0 0 219.42 324.92
  L 240.31 303.70
  A 0.52 0.52 0.0 0 0 240.30 302.96
  L 221.07 284.35
  L 215.24 278.75
  Q 210.95 274.06 208.54 271.73
  Q 208.14 271.35 207.17 271.09
  Q 207.47 270.94 207.32 270.53
  Q 207.22 270.25 206.96 270.09
  Q 205.35 269.14 203.95 268.09
  A 0.64 0.63 -48.9 0 1 203.89 267.13
  L 226.14 244.94
  Q 226.53 244.55 226.14 244.17
  L 221.47 239.52
  L 211.28 230.14
  Q 209.83 222.39 202.05 220.68
  Q 192.96 211.88 184.50 203.49
  Q 184.21 203.20 183.77 203.47
  Q 183.99 202.98 183.77 202.76
  Q 176.85 195.80 169.97 188.78
  Q 169.73 188.54 169.04 188.35
  Q 168.94 187.64 168.25 187.58
  A 0.76 0.75 -64.9 0 0 167.65 187.80
  L 137.23 217.72
  A 0.67 0.67 0.0 0 0 137.30 218.73
  C 148.17 227.03 150.75 241.01 144.92 252.85
  A 1.10 1.10 0.0 0 0 145.14 254.13
  Q 168.90 276.94 192.18 299.83
  Q 193.04 300.68 193.54 299.93
  Z
  M 302.02 219.50
  A 0.69 0.69 0.0 0 0 302.03 218.54
  L 296.76 212.98
  A 0.69 0.69 0.0 0 0 295.77 212.96
  L 276.36 232.47
  A 0.69 0.69 0.0 0 0 276.36 233.45
  L 281.91 239.02
  A 0.69 0.69 0.0 0 0 282.89 239.02
  L 302.02 219.50
  Z
  M 133.3608 240.5988
  A 12.34 12.16 3.2 0 0 121.7188 227.7690
  A 12.34 12.16 3.2 0 0 108.7192 239.2212
  A 12.34 12.16 3.2 0 0 120.3612 252.0510
  A 12.34 12.16 3.2 0 0 133.3608 240.5988
  Z
  M 392.75 237.89
  A 8.85 8.85 0.0 0 0 383.90 229.04
  A 8.85 8.85 0.0 0 0 375.05 237.89
  A 8.85 8.85 0.0 0 0 383.90 246.74
  A 8.85 8.85 0.0 0 0 392.75 237.89
  Z
  M 280.5920 251.9960
  A 0.80 0.80 0.0 0 0 280.5860 250.8646
  L 272.2128 242.5786
  A 0.80 0.80 0.0 0 0 271.0815 242.5845
  L 262.9080 250.8440
  A 0.80 0.80 0.0 0 0 262.9140 251.9754
  L 271.2872 260.2614
  A 0.80 0.80 0.0 0 0 272.4185 260.2555
  L 280.5920 251.9960
  Z
  M 289.0947 258.1256
  A 1.09 1.09 0.0 0 0 287.5532 258.1203
  L 279.6060 266.0122
  A 1.09 1.09 0.0 0 0 279.6006 267.5536
  L 287.6053 275.6144
  A 1.09 1.09 0.0 0 0 289.1468 275.6197
  L 297.0940 267.7278
  A 1.09 1.09 0.0 0 0 297.0994 266.1864
  L 289.0947 258.1256
  Z
  M 256.4352 258.2468
  A 0.95 0.95 0.0 0 0 255.0917 258.2444
  L 247.0167 266.2913
  A 0.95 0.95 0.0 0 0 247.0143 267.6348
  L 255.0048 275.6532
  A 0.95 0.95 0.0 0 0 256.3483 275.6556
  L 264.4233 267.6087
  A 0.95 0.95 0.0 0 0 264.4257 266.2652
  L 256.4352 258.2468
  Z
  M 272.6946 273.4957
  A 0.87 0.87 0.0 0 0 271.4642 273.4914
  L 263.1055 281.7920
  A 0.87 0.87 0.0 0 0 263.1012 283.0223
  L 271.3454 291.3243
  A 0.87 0.87 0.0 0 0 272.5758 291.3286
  L 280.9345 283.0280
  A 0.87 0.87 0.0 0 0 280.9388 281.7977
  L 272.6946 273.4957
  Z
  M 276.11 386.20
  A 9.61 9.61 0.0 0 0 266.50 376.59
  A 9.61 9.61 0.0 0 0 256.89 386.20
  A 9.61 9.61 0.0 0 0 266.50 395.81
  A 9.61 9.61 0.0 0 0 276.11 386.20
  Z"
/>
<rect fill="#e83f00" x="-8.46" y="-16.32" transform="translate(314.16,73.51) rotate(-0.1)" width="16.92" height="32.64" rx="8.04"/>
<ellipse fill="#2a3941" cx="0.00" cy="0.00" transform="translate(347.11,73.85) rotate(5.3)" rx="16.05" ry="15.84"/>
<circle fill="#000000" cx="182.21" cy="63.85" r="4.43"/>
<circle fill="#e83f00" cx="294.74" cy="66.30" r="3.55"/>
<ellipse fill="#7f95a2" cx="0.00" cy="0.00" transform="translate(377.46,66.44) rotate(-1.0)" rx="3.21" ry="2.93"/>
<path fill="#fd7902" d="
  M 394.94 74.74
  Q 392.71 71.30 389.45 69.38
  Q 392.42 66.04 395.13 69.12
  Q 397.13 71.40 394.94 74.74
  Z"
/>
<circle fill="#000000" cx="210.20" cy="76.22" r="8.44"/>
<path fill="#2a3941" d="
  M 389.45 69.38
  Q 392.71 71.30 394.94 74.74
  L 372.29 97.43
  Q 370.63 99.09 369.01 97.38
  L 366.85 95.10
  Q 365.36 93.52 366.89 91.99
  L 389.45 69.38
  Z"
/>
<path fill="#000000" d="
  M 411.46 96.09
  A 0.97 0.96 34.3 0 0 410.40 96.28
  L 400.38 106.07
  Q 397.82 108.57 395.31 106.00
  L 394.92 105.60
  Q 392.95 103.58 394.97 101.62
  Q 400.08 96.66 405.59 91.28
  C 406.43 90.46 406.89 89.22 406.66 88.04
  C 405.55 82.30 409.25 76.16 415.17 74.92
  C 428.34 72.15 435.26 88.29 424.70 95.59
  C 420.30 98.63 416.15 98.10 411.46 96.09
  Z"
/>
<path fill="#000000" d="
  M 166.44 74.42
  L 166.25 111.30
  A 18.54 18.43 -25.2 0 1 156.11 107.68
  A 18.46 18.45 22.4 0 1 148.84 90.26
  A 18.45 18.43 -14.9 0 1 155.78 78.30
  A 18.52 18.46 -64.9 0 1 166.44 74.42
  Z"
/>
<path fill="#e83f00" d="
  M 166.44 74.42
  A 18.47 18.46 -16.7 0 1 182.86 83.24
  A 18.43 18.43 0.0 0 1 185.41 95.26
  A 18.42 18.39 -17.7 0 1 179.65 106.40
  A 18.45 18.43 24.9 0 1 166.25 111.30
  L 166.44 74.42
  Z"
/>
<circle fill="#000000" cx="136.93" cy="88.13" r="4.58"/>
<path fill="#fd7902" d="
  M 250.73 88.71
  L 258.86 96.79
  Q 258.99 97.19 259.28 97.48
  Q 259.18 97.61 259.14 97.71
  Q 259.09 97.85 258.94 97.86
  Q 257.39 97.97 256.32 99.06
  Q 248.64 106.95 245.42 110.19
  Q 236.39 119.28 225.94 129.63
  C 225.29 130.28 224.08 130.63 223.61 131.50
  Q 223.32 132.03 222.23 131.83
  L 216.23 125.71
  L 214.36 124.36
  Q 232.10 106.60 249.94 88.93
  Q 250.37 88.50 250.73 88.71
  Z"
/>
<circle fill="#fd7902" cx="392.44" cy="96.26" r="3.42"/>
<ellipse fill="#7f95a2" cx="0.00" cy="0.00" transform="translate(352.19,97.94) rotate(81.7)" rx="3.23" ry="2.97"/>
<circle fill="#000000" cx="331.37" cy="102.50" r="5.60"/>
<path fill="#e83f00" d="
  M 259.28 97.48
  L 268.50 106.96
  L 234.15 141.01
  Q 233.29 141.86 232.39 141.04
  Q 232.03 140.72 231.22 140.60
  L 222.23 131.83
  Q 223.32 132.03 223.61 131.50
  C 224.08 130.63 225.29 130.28 225.94 129.63
  Q 236.39 119.28 245.42 110.19
  Q 248.64 106.95 256.32 99.06
  Q 257.39 97.97 258.94 97.86
  Q 259.09 97.85 259.14 97.71
  Q 259.18 97.61 259.28 97.48
  Z"
/>
<circle fill="#000000" cx="195.37" cy="104.71" r="7.06"/>
<path fill="#f65901" d="
  M 151.45 112.77
  C 145.57 113.88 140.21 115.32 138.27 121.73
  C 137.23 125.19 137.62 130.07 137.79 134.04
  A 15.62 15.59 -19.7 0 1 124.35 127.71
  A 15.61 15.60 37.7 0 1 122.42 112.71
  A 15.58 15.53 87.7 0 1 130.01 104.47
  A 15.60 15.56 -48.3 0 1 142.12 103.75
  A 15.58 15.57 89.0 0 1 151.45 112.77
  Z"
/>
<path fill="#e83f00" d="
  M 112.96 111.45
  L 109.85 115.11
  A 1.45 1.45 0.0 0 1 107.73 115.21
  L 104.08 111.65
  A 1.45 1.45 0.0 0 1 104.03 109.62
  L 107.68 105.73
  A 1.45 1.45 0.0 0 1 109.86 105.80
  L 112.98 109.59
  A 1.45 1.45 0.0 0 1 112.96 111.45
  Z"
/>
<path fill="#cc2401" d="
  M 268.50 106.96
  Q 270.34 108.37 271.74 110.56
  Q 272.03 111.00 271.66 111.37
  L 237.32 145.86
  Q 236.95 146.23 236.58 145.86
  L 231.22 140.60
  Q 232.03 140.72 232.39 141.04
  Q 233.29 141.86 234.15 141.01
  L 268.50 106.96
  Z"
/>
<path fill="#fd7902" d="
  M 408.52 112.87
  L 407.39 110.16
  Q 407.19 109.69 406.75 109.44
  L 404.22 107.99
  C 405.92 104.46 413.45 110.26 408.52 112.87
  Z"
/>
<path fill="#485a65" d="
  M 404.22 107.99
  L 406.75 109.44
  Q 407.19 109.69 407.39 110.16
  L 408.52 112.87
  Q 407.55 113.85 405.65 114.64
  A 2.19 2.18 58.5 0 1 403.16 114.04
  Q 400.55 110.99 404.22 107.99
  Z"
/>
<path fill="#000000" d="
  M 151.45 112.77
  A 15.60 15.58 53.2 0 1 149.27 128.00
  A 15.59 15.57 -72.7 0 1 137.79 134.04
  C 137.62 130.07 137.23 125.19 138.27 121.73
  C 140.21 115.32 145.57 113.88 151.45 112.77
  Z"
/>
<circle fill="#fd7902" cx="340.97" cy="117.27" r="3.34"/>
<path fill="#485a65" d="
  M 421.42 114.90
  L 421.37 121.00
  A 0.03 0.02 31.7 0 0 421.38 121.02
  Q 421.44 121.37 421.73 121.32
  Q 422.17 121.25 422.41 120.88
  Q 424.00 118.49 426.53 117.56
  A 8.56 8.56 0.0 0 1 426.80 128.88
  L 420.84 124.81
  A 1.01 1.01 0.0 0 0 419.65 124.86
  L 414.12 129.35
  A 8.57 8.56 38.5 0 1 412.93 118.94
  A 8.56 8.56 0.0 0 1 421.42 114.90
  Z"
/>
<path fill="#000000" d="
  M 421.42 114.90
  A 8.59 8.58 -17.5 0 1 426.53 117.56
  Q 424.00 118.49 422.41 120.88
  Q 422.17 121.25 421.73 121.32
  Q 421.44 121.37 421.38 121.02
  A 0.03 0.02 31.7 0 1 421.37 121.00
  L 421.42 114.90
  Z"
/>
<ellipse fill="#000000" cx="0.00" cy="0.00" transform="translate(181.87,119.53) rotate(67.9)" rx="4.25" ry="4.07"/>
<circle fill="#000000" cx="369.82" cy="124.80" r="5.56"/>
<ellipse fill="#000000" cx="0.00" cy="0.00" transform="translate(164.97,131.99) rotate(-24.0)" rx="9.12" ry="8.94"/>
<circle fill="#000000" cx="193.19" cy="132.42" r="8.11"/>
<path fill="#000000" d="
  M 426.80 128.88
  A 8.57 8.55 23.6 0 1 419.16 131.87
  A 8.55 8.55 0.0 0 1 414.12 129.35
  L 419.65 124.86
  A 1.01 1.01 0.0 0 1 420.84 124.81
  L 426.80 128.88
  Z"
/>
<ellipse fill="#7f95a2" cx="0.00" cy="0.00" transform="translate(94.10,130.72) rotate(-20.7)" rx="2.99" ry="2.75"/>
<circle fill="#cc2401" cx="401.01" cy="133.89" r="5.61"/>
<circle fill="#000000" cx="282.18" cy="137.74" r="6.83"/>
<path fill="#f65901" d="
  M 127.98 150.87
  L 118.17 151.04
  Q 116.64 148.32 114.37 146.39
  Q 112.84 145.09 110.88 146.12
  Q 107.92 147.66 106.70 150.15
  Q 101.75 151.40 96.01 150.51
  A 16.29 15.94 -85.0 0 1 101.92 138.45
  A 16.31 15.98 -83.3 0 1 120.78 137.41
  A 16.32 15.98 -83.2 0 1 127.98 150.87
  Z"
/>
<circle fill="#000000" cx="179.66" cy="146.68" r="6.50"/>
<path fill="#485a65" d="
  M 216.71 141.02
  L 215.85 157.29
  L 199.99 157.51
  Q 199.66 156.71 199.82 156.56
  Q 207.44 149.05 214.97 141.47
  Q 216.11 140.31 216.71 141.02
  Z"
/>
<path fill="#192327" d="
  M 216.71 141.02
  Q 217.85 141.49 218.28 141.95
  Q 224.59 148.70 231.69 155.70
  A 0.85 0.85 0.0 0 1 231.14 157.15
  Q 225.39 157.45 218.50 157.23
  Q 217.38 157.19 216.48 158.02
  Q 216.20 157.95 215.85 157.29
  L 216.71 141.02
  Z"
/>
<circle fill="#000000" cx="145.39" cy="150.98" r="9.32"/>
<path fill="#485a65" d="
  M 433.08 151.20
  Q 431.76 152.57 430.51 153.84
  Q 429.16 155.23 427.64 155.92
  Q 425.98 156.68 424.26 157.23
  C 420.64 151.87 414.03 150.77 409.28 155.14
  Q 406.15 158.01 406.44 162.48
  Q 406.78 167.89 412.53 170.87
  L 405.39 181.22
  Q 399.11 177.65 396.60 171.66
  Q 396.19 171.32 395.96 170.83
  Q 392.00 159.52 398.94 150.44
  Q 403.86 144.00 412.24 142.68
  Q 425.58 140.59 433.08 151.20
  Z"
/>
<path fill="#000000" d="
  M 118.17 151.04
  Q 116.63 154.97 113.11 156.97
  Q 112.67 157.22 112.16 157.16
  C 110.22 156.93 108.97 155.60 107.03 155.14
  Q 106.43 152.69 106.70 150.15
  Q 107.92 147.66 110.88 146.12
  Q 112.84 145.09 114.37 146.39
  Q 116.64 148.32 118.17 151.04
  Z"
/>
<circle fill="#000000" cx="266.26" cy="153.22" r="6.91"/>
<circle fill="#000000" cx="297.47" cy="153.24" r="6.93"/>
<path fill="#e83f00" d="
  M 106.70 150.15
  Q 106.43 152.69 107.03 155.14
  L 106.87 166.56
  A 16.29 15.86 -89.5 0 1 101.79 163.69
  A 16.28 15.94 -82.9 0 1 96.01 150.51
  Q 101.75 151.40 106.70 150.15
  Z"
/>
<path fill="#192327" d="
  M 127.98 150.87
  A 16.33 15.99 -83.4 0 1 106.87 166.56
  L 107.03 155.14
  C 108.97 155.60 110.22 156.93 112.16 157.16
  Q 112.67 157.22 113.11 156.97
  Q 116.63 154.97 118.17 151.04
  L 127.98 150.87
  Z"
/>
<circle fill="#f65901" cx="344.03" cy="156.50" r="5.63"/>
<path fill="#192327" d="
  M 433.08 151.20
  C 441.01 163.36 434.74 178.90 421.54 183.06
  Q 413.30 185.67 405.39 181.22
  L 412.53 170.87
  C 420.93 173.01 427.78 165.56 424.26 157.23
  Q 425.98 156.68 427.64 155.92
  Q 429.16 155.23 430.51 153.84
  Q 431.76 152.57 433.08 151.20
  Z"
/>
<ellipse fill="#e83f00" cx="0.00" cy="0.00" transform="translate(167.42,155.97) rotate(13.5)" rx="3.69" ry="3.55"/>
<path fill="#000000" d="
  M 424.26 157.23
  C 427.78 165.56 420.93 173.01 412.53 170.87
  Q 406.78 167.89 406.44 162.48
  Q 406.15 158.01 409.28 155.14
  C 414.03 150.77 420.64 151.87 424.26 157.23
  Z"
/>
<path fill="#fd7902" d="
  M 316.06 154.22
  L 330.26 168.24
  Q 325.95 165.76 323.98 167.73
  Q 308.89 182.78 293.81 198.19
  L 284.09 187.52
  L 316.06 154.22
  Z"
/>
<path fill="#2a3941" d="
  M 199.99 157.51
  L 215.85 157.29
  Q 216.20 157.95 216.48 158.02
  L 216.21 172.37
  Q 216.18 173.86 215.14 172.80
  L 199.99 157.51
  Z"
/>
<circle fill="#000000" cx="85.04" cy="168.15" r="6.73"/>
<circle fill="#000000" cx="158.36" cy="168.39" r="6.47"/>
<circle fill="#000000" cx="282.31" cy="168.88" r="6.88"/>
<path fill="#485a65" d="
  M 280.17 200.88
  L 275.36 205.83
  L 242.78 174.21
  A 0.75 0.75 0.0 0 0 241.73 174.22
  L 210.89 204.91
  A 0.86 0.85 45.2 0 0 210.89 206.12
  L 237.10 231.92
  Q 238.35 233.15 237.11 234.39
  L 233.83 237.68
  Q 232.65 238.85 231.46 237.69
  L 199.62 206.39
  A 1.22 1.22 0.0 0 1 199.62 204.65
  L 241.47 162.95
  Q 242.02 162.41 242.56 162.94
  Q 260.49 180.60 279.90 199.59
  Q 280.20 199.89 280.25 200.17
  Q 280.30 200.52 280.17 200.88
  Z"
/>
<path fill="#fd7902" d="
  M 395.96 170.83
  Q 396.19 171.32 396.60 171.66
  Q 396.30 173.31 396.35 175.00
  C 396.55 181.92 391.84 186.83 385.29 187.46
  C 379.07 188.07 373.02 183.08 372.65 176.70
  C 372.18 168.52 379.40 162.04 387.56 164.05
  Q 392.80 165.34 395.96 170.83
  Z
  M 391.56 175.61
  A 7.04 7.04 0.0 0 0 384.52 168.57
  A 7.04 7.04 0.0 0 0 377.48 175.61
  A 7.04 7.04 0.0 0 0 384.52 182.65
  A 7.04 7.04 0.0 0 0 391.56 175.61
  Z"
/>
<path fill="#fd7902" d="
  M 136.43 193.40
  L 123.46 179.95
  A 0.77 0.77 0.0 0 1 123.46 178.89
  L 136.36 165.51
  A 0.77 0.77 0.0 0 1 137.46 165.51
  L 150.55 178.99
  A 0.77 0.77 0.0 0 1 150.55 180.07
  L 137.53 193.40
  A 0.77 0.77 0.0 0 1 136.43 193.40
  Z
  M 136.25 188.41
  A 1.03 1.03 0.0 0 0 137.77 188.41
  L 145.55 179.96
  A 1.03 1.03 0.0 0 0 145.51 178.53
  L 137.48 170.57
  A 1.03 1.03 0.0 0 0 136.03 170.58
  L 128.36 178.29
  A 1.03 1.03 0.0 0 0 128.33 179.71
  L 136.25 188.41
  Z"
/>
<path fill="#e83f00" d="
  M 330.26 168.24
  L 338.59 176.58
  Q 335.50 177.02 333.12 179.37
  Q 318.52 193.83 304.02 208.64
  L 293.81 198.19
  Q 308.89 182.78 323.98 167.73
  Q 325.95 165.76 330.26 168.24
  Z"
/>
<circle fill="#000000" cx="384.52" cy="175.61" r="7.04"/>
<path fill="#000000" d="
  M 136.25 188.41
  L 128.33 179.71
  A 1.03 1.03 0.0 0 1 128.36 178.29
  L 136.03 170.58
  A 1.03 1.03 0.0 0 1 137.48 170.57
  L 145.51 178.53
  A 1.03 1.03 0.0 0 1 145.55 179.96
  L 137.77 188.41
  A 1.03 1.03 0.0 0 1 136.25 188.41
  Z"
/>
<ellipse fill="#e83f00" cx="0.00" cy="0.00" transform="translate(109.30,179.32) rotate(104.0)" rx="3.64" ry="3.51"/>
<circle fill="#000000" cx="191.52" cy="180.03" r="3.47"/>
<path fill="#cc2401" d="
  M 338.59 176.58
  L 346.17 183.98
  Q 346.46 184.26 346.85 184.20
  Q 347.19 184.14 347.34 184.38
  L 313.72 218.30
  L 304.02 208.64
  Q 318.52 193.83 333.12 179.37
  Q 335.50 177.02 338.59 176.58
  Z"
/>
<circle fill="#e83f00" cx="119.08" cy="187.90" r="3.44"/>
<path fill="#fd7902" d="
  M 169.04 188.35
  Q 169.73 188.54 169.97 188.78
  Q 176.85 195.80 183.77 202.76
  Q 183.99 202.98 183.77 203.47
  L 180.53 207.15
  A 1.43 1.43 0.0 0 1 178.44 207.20
  L 165.67 194.08
  A 1.43 1.42 -46.1 0 1 165.64 192.12
  L 169.04 188.35
  Z"
/>
<circle fill="#000000" cx="84.96" cy="194.06" r="4.13"/>
<circle fill="#000000" cx="97.32" cy="194.06" r="4.06"/>
<ellipse fill="#fd7902" cx="0.00" cy="0.00" transform="translate(403.21,194.03) rotate(89.8)" rx="3.49" ry="3.29"/>
<circle fill="#e83f00" cx="109.47" cy="194.66" r="3.47"/>
<circle fill="#fd7902" cx="393.47" cy="194.41" r="3.45"/>
<ellipse fill="#000000" cx="0.00" cy="0.00" transform="translate(421.21,197.82) rotate(-10.2)" rx="6.38" ry="6.18"/>
<circle fill="#485a65" cx="124.06" cy="202.12" r="5.11"/>
<ellipse fill="#000000" cx="0.00" cy="0.00" transform="translate(242.25,205.45) rotate(-7.1)" rx="6.15" ry="6.03"/>
<path fill="#192327" d="
  M 341.25 240.74
  C 340.82 229.87 341.34 218.87 341.23 208.01
  C 341.21 206.20 339.80 205.44 339.76 203.68
  C 339.70 200.58 343.48 199.67 345.22 201.93
  A 2.57 2.55 -45.2 0 1 345.22 205.05
  C 344.34 206.20 343.91 207.13 343.91 208.62
  Q 343.90 225.25 343.89 240.81
  A 0.68 0.67 -88.0 0 1 343.18 241.48
  L 341.89 241.40
  A 0.68 0.68 0.0 0 1 341.25 240.74
  Z"
/>
<circle fill="#e83f00" cx="163.24" cy="206.81" r="5.34"/>
<circle fill="#192327" cx="105.02" cy="206.63" r="3.25"/>
<circle fill="#000000" cx="405.02" cy="209.45" r="5.67"/>
<path fill="#e83f00" d="
  M 358.37 211.24
  Q 357.32 211.02 356.23 211.77
  Q 352.25 207.67 354.73 205.52
  C 356.71 203.79 359.13 204.65 359.71 207.26
  Q 360.00 208.55 358.37 211.24
  Z"
/>
<circle fill="#000000" cx="438.34" cy="210.77" r="6.31"/>
<circle fill="#fd7902" cx="89.70" cy="215.82" r="6.69"/>
<rect fill="#000000" x="-1.25" y="-15.89" transform="translate(350.37,225.56) rotate(0.2)" width="2.50" height="31.78" rx="0.86"/>
<path fill="#000000" d="
  M 179.98 229.31
  C 178.68 228.35 177.14 227.97 175.93 226.86
  Q 171.75 223.07 172.72 217.74
  C 173.55 213.24 178.04 210.19 182.54 210.87
  Q 187.34 211.60 189.75 216.21
  C 192.21 220.91 189.69 226.47 184.97 228.27
  C 182.50 229.22 183.31 231.98 183.22 234.02
  Q 183.17 235.25 181.93 235.19
  Q 181.73 235.19 181.53 235.19
  Q 180.65 235.23 180.60 234.35
  L 180.38 230.06
  A 0.99 0.98 17.1 0 0 179.98 229.31
  Z"
/>
<ellipse fill="#fd7902" cx="0.00" cy="0.00" transform="translate(418.81,214.64) rotate(117.4)" rx="3.49" ry="3.26"/>
<path fill="#7f95a2" d="
  M 358.37 211.24
  Q 359.13 215.47 359.07 217.00
  Q 358.59 228.54 358.35 240.09
  A 0.87 0.87 0.0 0 1 357.69 240.92
  L 357.22 241.05
  Q 356.74 241.17 356.70 240.67
  Q 355.66 226.45 356.23 211.77
  Q 357.32 211.02 358.37 211.24
  Z"
/>
<ellipse fill="#e83f00" cx="0.00" cy="0.00" transform="translate(151.06,216.41) rotate(89.4)" rx="3.48" ry="3.27"/>
<path fill="#e83f00" d="
  M 302.02 219.50
  L 282.89 239.02
  A 0.69 0.69 0.0 0 1 281.91 239.02
  L 276.36 233.45
  A 0.69 0.69 0.0 0 1 276.36 232.47
  L 295.77 212.96
  A 0.69 0.69 0.0 0 1 296.76 212.98
  L 302.03 218.54
  A 0.69 0.69 0.0 0 1 302.02 219.50
  Z"
/>
<circle fill="#000000" cx="327.07" cy="220.56" r="3.63"/>
<path fill="#e83f00" d="
  M 202.05 220.68
  Q 209.83 222.39 211.28 230.14
  Q 209.86 237.81 202.97 239.14
  Q 198.85 239.93 194.46 236.27
  Q 194.18 235.11 193.11 233.87
  Q 190.28 223.04 202.05 220.68
  Z"
/>
<path fill="#000000" d="
  M 168.54 236.87
  Q 167.43 237.58 166.29 238.30
  C 163.05 240.34 158.83 239.33 156.05 236.93
  C 152.76 234.08 152.28 227.93 155.00 224.59
  C 157.84 221.11 162.92 219.81 166.93 222.38
  Q 172.66 226.05 171.10 233.09
  A 1.70 1.69 25.4 0 0 171.71 234.79
  L 174.56 237.04
  Q 175.90 238.09 174.67 239.26
  L 174.39 239.53
  A 0.99 0.98 -47.6 0 1 173.10 239.59
  L 169.71 236.92
  Q 169.15 236.48 168.54 236.87
  Z"
/>
<path fill="#485a65" d="
  M 333.17 225.54
  C 331.94 223.66 333.15 221.43 335.50 222.00
  A 1.86 1.85 -80.1 0 1 336.91 224.01
  C 336.77 225.18 336.46 226.23 336.47 227.44
  Q 336.48 234.11 336.58 240.12
  Q 336.60 241.24 335.51 241.46
  Q 335.30 241.51 335.09 241.51
  Q 333.73 241.55 333.72 240.19
  L 333.69 227.27
  Q 333.69 226.33 333.17 225.54
  Z"
/>
<path fill="#2a3941" d="
  M 435.48 264.19
  Q 435.25 255.20 435.37 246.81
  Q 435.41 244.43 434.91 243.04
  C 433.39 238.80 427.74 238.70 425.30 241.96
  Q 424.24 243.38 424.28 247.41
  Q 424.35 255.68 423.91 264.11
  A 19.84 19.84 0.0 0 1 410.30 241.75
  A 19.87 19.85 -6.4 0 1 422.20 226.87
  A 19.86 19.84 51.0 0 1 441.15 228.88
  A 19.80 19.77 -80.2 0 1 448.99 240.02
  A 19.83 19.83 0.0 0 1 435.48 264.19
  Z"
/>
<circle fill="#485a65" cx="383.90" cy="237.89" r="8.85"/>
<circle fill="#000000" cx="78.31" cy="240.04" r="9.26"/>
<circle fill="#000000" cx="317.32" cy="244.97" r="12.35"/>
<path fill="#000000" d="
  M 193.11 233.87
  Q 194.18 235.11 194.46 236.27
  L 189.82 239.53
  A 0.83 0.82 43.5 0 1 188.90 239.55
  Q 188.30 239.17 188.37 238.54
  Q 188.51 237.30 189.41 236.75
  Q 191.77 235.32 193.11 233.87
  Z"
/>
<circle fill="#000000" cx="121.11" cy="239.96" r="5.04"/>
<path fill="#e83f00" d="
  M 221.47 239.52
  L 226.14 244.17
  Q 226.53 244.55 226.14 244.94
  L 203.89 267.13
  A 0.64 0.63 -48.9 0 0 203.95 268.09
  Q 205.35 269.14 206.96 270.09
  Q 207.22 270.25 207.32 270.53
  Q 207.47 270.94 207.17 271.09
  L 201.16 277.41
  A 0.64 0.64 0.0 0 0 201.17 278.30
  L 207.88 284.97
  L 199.49 293.45
  L 187.84 281.42
  A 0.86 0.85 -45.0 0 1 187.85 280.23
  Q 193.36 274.61 198.83 269.07
  Q 201.06 266.82 202.46 264.11
  Q 212.34 261.52 209.91 251.08
  Q 211.70 249.70 213.11 248.35
  Q 217.53 244.11 221.47 239.52
  Z"
/>
<path fill="#e83f00" d="
  M 435.48 264.19
  A 19.79 19.76 -44.6 0 1 423.91 264.11
  Q 424.35 255.68 424.28 247.41
  Q 424.24 243.38 425.30 241.96
  C 427.74 238.70 433.39 238.80 434.91 243.04
  Q 435.41 244.43 435.37 246.81
  Q 435.25 255.20 435.48 264.19
  Z"
/>
<circle fill="#e83f00" cx="211.55" cy="243.16" r="3.14"/>
<path fill="#000000" d="
  M 209.91 251.08
  Q 212.34 261.52 202.46 264.11
  Q 191.50 263.69 192.47 252.51
  Q 192.54 251.67 191.84 251.20
  L 188.72 249.12
  Q 187.79 248.50 188.30 247.50
  Q 188.62 246.89 189.44 246.62
  A 1.34 1.31 -36.5 0 1 190.59 246.78
  L 193.27 248.60
  A 1.04 1.04 0.0 0 0 194.52 248.54
  Q 203.02 241.38 209.91 251.08
  Z"
/>
<path fill="#000000" d="
  M 170.33 248.84
  L 173.22 246.54
  A 0.90 0.85 21.9 0 1 173.71 246.35
  Q 174.85 246.29 175.16 246.97
  Q 175.81 248.40 174.55 249.34
  L 171.81 251.36
  Q 171.28 251.75 171.30 252.40
  Q 171.35 253.60 171.48 254.80
  C 171.87 258.43 169.03 261.68 165.92 263.16
  C 161.49 265.27 156.47 263.29 154.38 258.93
  C 150.59 251.02 158.05 242.84 166.14 246.59
  C 167.32 247.14 168.19 248.09 169.23 248.86
  Q 169.79 249.27 170.33 248.84
  Z"
/>
<path fill="#000000" d="
  M 389.82 313.17
  Q 387.33 315.72 386.54 320.02
  L 362.41 296.81
  Q 362.02 296.44 361.65 296.82
  L 314.61 344.45
  A 1.17 1.17 0.0 0 1 312.95 344.46
  L 281.73 313.74
  A 0.88 0.88 0.0 0 1 281.72 312.51
  L 287.03 307.05
  Q 296.67 316.93 306.40 326.54
  Q 306.57 326.70 306.78 326.75
  Q 307.08 326.82 307.21 326.74
  L 313.25 333.11
  A 0.60 0.59 -44.0 0 0 314.11 333.12
  L 339.33 307.43
  Q 340.01 306.73 339.34 306.02
  L 334.44 300.89
  A 1.02 1.02 0.0 0 0 332.98 300.87
  L 323.31 310.68
  Q 323.42 309.36 321.64 308.95
  L 323.06 306.06
  Q 323.29 305.59 323.10 305.11
  Q 322.21 302.75 319.87 301.73
  L 323.98 298.77
  A 2.12 2.12 0.0 0 0 324.21 295.52
  L 317.59 289.14
  A 0.98 0.98 0.0 0 0 316.21 289.16
  L 311.31 294.13
  L 305.09 299.91
  Q 304.67 300.29 304.58 300.85
  L 303.74 305.78
  A 2.23 2.21 25.6 0 0 304.48 307.85
  Q 307.69 310.65 309.08 315.07
  L 293.41 300.50
  L 346.34 246.18
  A 0.43 0.42 -45.5 0 1 346.94 246.17
  Q 367.07 265.51 387.05 285.70
  Q 387.97 286.63 388.74 287.69
  Q 389.07 288.14 389.47 287.75
  L 396.08 281.13
  Q 396.94 280.27 397.79 281.13
  L 401.88 285.29
  A 1.24 1.24 0.0 0 1 401.87 287.05
  L 390.32 298.51
  A 1.62 1.62 0.0 0 1 388.04 298.51
  L 374.36 284.94
  A 0.60 0.59 44.3 0 0 373.52 284.94
  L 368.06 290.59
  Q 367.64 291.03 368.07 291.46
  L 389.82 313.17
  Z
  M 368.5013 279.1104
  A 0.74 0.74 0.0 0 0 368.4995 278.0639
  L 347.3201 256.9584
  A 0.74 0.74 0.0 0 0 346.2736 256.9602
  L 324.9987 278.3096
  A 0.74 0.74 0.0 0 0 325.0005 279.3561
  L 346.1799 300.4616
  A 0.74 0.74 0.0 0 0 347.2264 300.4598
  L 368.5013 279.1104
  Z"
/>
<path fill="#000000" d="
  M 185.20 258.84
  C 196.01 263.71 189.60 280.05 178.52 275.99
  C 174.37 274.47 171.64 269.68 172.83 265.26
  Q 174.20 260.11 179.05 258.58
  A 2.05 2.03 81.7 0 0 180.47 256.66
  L 180.52 251.84
  Q 180.53 250.97 181.41 250.98
  L 182.53 250.99
  Q 183.48 251.00 183.39 251.94
  C 183.16 254.30 182.46 257.61 185.20 258.84
  Z"
/>
<path fill="#7f95a2" d="
  M 92.04 260.09
  L 87.70 264.26
  A 1.38 1.38 0.0 0 1 85.79 264.27
  L 81.54 260.25
  A 1.38 1.38 0.0 0 1 81.49 258.29
  L 85.97 253.63
  A 1.38 1.38 0.0 0 1 87.98 253.66
  L 92.10 258.17
  A 1.38 1.38 0.0 0 1 92.04 260.09
  Z"
/>
<path fill="#485a65" d="
  M 347.2264 300.4598
  A 0.74 0.74 0.0 0 1 346.1799 300.4616
  L 325.0005 279.3561
  A 0.74 0.74 0.0 0 1 324.9987 278.3096
  L 346.2736 256.9602
  A 0.74 0.74 0.0 0 1 347.3201 256.9584
  L 368.4995 278.0639
  A 0.74 0.74 0.0 0 1 368.5013 279.1104
  L 347.2264 300.4598
  Z
  M 351.5310 271.4800
  A 6.96 6.96 0.0 0 0 341.6893 271.3254
  L 339.0609 273.8725
  A 6.96 6.96 0.0 0 0 338.9063 283.7142
  L 341.5090 286.4000
  A 6.96 6.96 0.0 0 0 351.3507 286.5546
  L 353.9791 284.0075
  A 6.96 6.96 0.0 0 0 354.1337 274.1658
  L 351.5310 271.4800
  Z"
/>
<circle fill="#000000" cx="409.01" cy="271.64" r="7.17"/>
<circle fill="#000000" cx="387.28" cy="270.80" r="3.82"/>
<path fill="#192327" d="
  M 354.1337 274.1658
  A 6.96 6.96 0.0 0 1 353.9791 284.0075
  L 351.3507 286.5546
  A 6.96 6.96 0.0 0 1 341.5090 286.4000
  L 338.9063 283.7142
  A 6.96 6.96 0.0 0 1 339.0609 273.8725
  L 341.6893 271.3254
  A 6.96 6.96 0.0 0 1 351.5310 271.4800
  L 354.1337 274.1658
  Z
  M 343.2226 283.9307
  A 5.99 5.68 123.4 0 0 351.2619 282.0567
  A 5.99 5.68 123.4 0 0 349.8174 273.9293
  A 5.99 5.68 123.4 0 0 341.7781 275.8033
  A 5.99 5.68 123.4 0 0 343.2226 283.9307
  Z"
/>
<circle fill="#f65901" cx="431.63" cy="278.94" r="7.51"/>
<ellipse fill="#000000" cx="0.00" cy="0.00" transform="translate(346.52,278.93) rotate(123.4)" rx="5.99" ry="5.68"/>
<circle fill="#000000" cx="107.73" cy="280.13" r="5.45"/>
<ellipse fill="#f65901" cx="0.00" cy="0.00" transform="translate(129.43,283.75) rotate(61.6)" rx="8.78" ry="8.59"/>
<path fill="#7f95a2" d="
  M 215.24 278.75
  L 221.07 284.35
  L 215.43 291.22
  Q 214.88 291.71 214.28 291.20
  Q 212.75 289.92 208.55 285.67
  Q 208.40 285.52 208.36 285.34
  Q 208.30 285.10 208.31 284.95
  Q 210.98 281.41 215.24 278.75
  Z"
/>
<circle fill="#000000" cx="149.21" cy="287.82" r="4.31"/>
<path fill="#000000" d="
  M 208.31 284.95
  Q 208.30 285.10 208.36 285.34
  Q 208.40 285.52 208.55 285.67
  Q 212.75 289.92 214.28 291.20
  Q 214.88 291.71 215.43 291.22
  Q 215.40 291.81 215.64 292.20
  C 211.96 293.29 209.29 297.10 206.62 299.68
  Q 205.95 299.44 205.55 298.84
  C 204.49 297.28 202.64 295.97 201.18 294.77
  C 200.59 294.28 199.94 294.19 199.22 294.10
  Q 199.02 293.67 199.49 293.45
  L 207.88 284.97
  Q 207.95 284.75 208.31 284.95
  Z"
/>
<path fill="#192327" d="
  M 319.87 301.73
  Q 318.33 299.80 315.51 304.92
  Q 310.96 305.67 310.85 302.52
  C 310.78 300.78 313.02 297.84 315.33 299.07
  Q 315.69 299.26 316.06 299.38
  Q 317.39 299.82 316.55 298.71
  Q 314.07 295.45 311.31 294.13
  L 316.21 289.16
  A 0.98 0.98 0.0 0 1 317.59 289.14
  L 324.21 295.52
  A 2.12 2.12 0.0 0 1 323.98 298.77
  L 319.87 301.73
  Z"
/>
<circle fill="#000000" cx="413.98" cy="300.66" r="10.67"/>
<path fill="#cc2401" d="
  M 215.64 292.20
  L 220.01 296.84
  L 211.96 304.92
  L 206.65 299.74
  Q 206.37 300.21 206.62 299.68
  C 209.29 297.10 211.96 293.29 215.64 292.20
  Z"
/>
<path fill="#192327" d="
  M 199.22 294.10
  C 199.94 294.19 200.59 294.28 201.18 294.77
  C 202.64 295.97 204.49 297.28 205.55 298.84
  Q 205.95 299.44 206.62 299.68
  Q 206.37 300.21 206.65 299.74
  L 199.72 306.51
  Q 195.75 303.59 193.54 299.93
  L 199.22 294.10
  Z"
/>
<path fill="#7f95a2" d="
  M 311.31 294.13
  Q 314.07 295.45 316.55 298.71
  Q 317.39 299.82 316.06 299.38
  Q 315.69 299.26 315.33 299.07
  C 313.02 297.84 310.78 300.78 310.85 302.52
  Q 310.96 305.67 315.51 304.92
  Q 316.19 309.77 321.64 308.95
  Q 323.42 309.36 323.31 310.68
  L 314.22 319.67
  Q 311.84 316.45 309.08 315.07
  Q 307.69 310.65 304.48 307.85
  A 2.23 2.21 25.6 0 1 303.74 305.78
  L 304.58 300.85
  Q 304.67 300.29 305.09 299.91
  L 311.31 294.13
  Z"
/>
<circle fill="#000000" cx="109.26" cy="314.90" r="20.19"/>
<path fill="#000000" d="
  M 220.01 296.84
  L 226.83 303.65
  Q 227.19 304.02 226.83 304.39
  L 219.29 312.14
  L 211.96 304.92
  L 220.01 296.84
  Z"
/>
<circle fill="#2a3941" cx="139.17" cy="300.98" r="3.41"/>
<path fill="#485a65" d="
  M 206.65 299.74
  L 211.96 304.92
  L 219.29 312.14
  L 212.25 318.86
  L 199.72 306.51
  L 206.65 299.74
  Z"
/>
<path fill="#e83f00" d="
  M 293.41 300.50
  L 309.08 315.07
  Q 311.84 316.45 314.22 319.67
  L 307.21 326.74
  Q 307.08 326.82 306.78 326.75
  Q 306.57 326.70 306.40 326.54
  Q 296.67 316.93 287.03 307.05
  L 293.41 300.50
  Z"
/>
<path fill="#485a65" d="
  M 253.00 304.10
  L 258.30 309.46
  Q 258.56 310.57 257.68 311.44
  Q 245.02 324.03 232.64 336.57
  A 0.90 0.89 43.8 0 1 231.39 336.59
  L 226.81 332.21
  A 1.18 1.17 44.3 0 1 226.78 330.54
  L 253.00 304.10
  Z"
/>
<circle fill="#000000" cx="435.09" cy="313.40" r="4.34"/>
<path fill="#192327" d="
  M 331.43 342.26
  A 1.92 1.92 0.0 0 1 331.42 339.55
  L 360.01 310.66
  A 3.91 3.65 -45.3 0 1 365.36 310.44
  L 365.90 310.98
  A 3.91 3.65 -45.3 0 1 365.74 316.32
  L 337.15 345.22
  A 1.92 1.92 0.0 0 1 334.43 345.23
  L 331.43 342.26
  Z"
/>
<path fill="#e83f00" d="
  M 406.83 324.96
  Q 405.44 327.91 402.07 329.92
  Q 394.23 333.58 389.12 327.38
  Q 386.98 324.79 386.54 320.02
  Q 387.33 315.72 389.82 313.17
  Q 398.84 306.74 405.21 314.75
  Q 408.49 318.88 406.83 324.96
  Z"
/>
<path fill="#192327" d="
  M 200.16 333.41
  L 193.99 327.04
  L 200.33 319.51
  A 0.62 0.61 -46.2 0 1 201.25 319.49
  L 206.60 325.30
  A 1.18 1.17 46.3 0 1 206.57 326.92
  L 200.16 333.41
  Z"
/>
<circle fill="#000000" cx="373.78" cy="326.16" r="5.00"/>
<path fill="#fd7902" d="
  M 275.93 323.52
  L 284.02 331.53
  L 278.88 337.20
  L 277.28 337.26
  L 270.68 330.50
  A 1.47 1.46 41.3 0 1 270.55 328.60
  Q 272.68 325.76 275.93 323.52
  Z"
/>
<path fill="#000000" d="
  M 406.83 324.96
  L 416.63 334.71
  Q 416.97 335.05 417.40 334.82
  Q 425.18 330.54 431.21 336.38
  Q 434.89 339.95 434.24 345.28
  C 432.39 360.56 409.56 357.15 412.63 341.27
  A 1.03 1.02 28.8 0 0 412.36 340.35
  L 402.07 329.92
  Q 405.44 327.91 406.83 324.96
  Z"
/>
<path fill="#fd7902" d="
  M 193.99 327.04
  L 200.16 333.41
  L 193.21 341.25
  Q 193.02 341.46 192.75 341.50
  Q 192.61 341.53 192.47 341.54
  L 185.71 334.58
  L 193.99 327.04
  Z"
/>
<path fill="#2a3941" d="
  M 220.33 338.32
  L 199.86 358.92
  A 2.55 2.53 21.5 0 1 198.14 359.66
  L 188.97 359.88
  Q 188.60 358.34 190.33 356.57
  Q 202.00 344.56 213.66 332.32
  A 1.13 1.13 0.0 0 1 215.36 332.39
  Q 217.31 334.80 219.75 336.79
  Q 220.49 337.40 220.33 338.32
  Z"
/>
<path fill="#000000" d="
  M 409.87 359.06
  Q 415.05 358.01 416.97 362.80
  C 418.37 366.28 415.54 371.54 411.49 371.39
  Q 405.62 371.17 405.31 365.11
  Q 405.28 364.56 404.88 364.16
  L 381.31 340.99
  A 2.05 2.04 16.2 0 1 380.74 339.96
  Q 380.10 337.11 381.51 336.29
  Q 384.32 334.65 386.65 336.94
  L 408.83 358.75
  Q 409.27 359.19 409.87 359.06
  Z"
/>
<rect fill="#000000" x="-20.08" y="-3.35" transform="translate(373.86,351.05) rotate(44.9)" width="40.16" height="6.70" rx="3.30"/>
<circle fill="#000000" cx="172.76" cy="341.49" r="4.67"/>
<path fill="#e83f00" d="
  M 277.28 337.26
  L 278.88 337.20
  C 279.09 339.42 283.52 343.32 285.09 344.96
  A 0.64 0.63 -44.0 0 1 285.07 345.85
  L 277.69 353.14
  A 0.54 0.54 0.0 0 1 276.92 353.13
  L 270.62 346.52
  A 1.06 1.06 0.0 0 1 270.63 345.05
  Q 273.61 341.97 276.77 338.87
  C 277.18 338.46 277.32 337.82 277.28 337.26
  Z"
/>
<path fill="#e83f00" d="
  M 260.23 337.50
  L 267.06 345.09
  A 1.56 1.55 -43.1 0 1 266.98 347.25
  L 258.79 355.17
  L 250.61 347.11
  L 255.06 342.38
  L 260.23 337.50
  Z"
/>
<circle fill="#7f95a2" cx="126.97" cy="341.27" r="3.26"/>
<path fill="#192327" d="
  M 142.39 342.49
  L 148.20 347.67
  Q 133.32 362.88 116.96 379.11
  Q 114.26 381.80 111.48 379.20
  Q 111.42 379.14 111.36 379.09
  Q 108.58 376.49 111.27 373.80
  Q 127.01 358.03 142.39 342.49
  Z"
/>
<circle fill="#e83f00" cx="99.55" cy="347.87" r="3.66"/>
<circle fill="#000000" cx="116.31" cy="349.15" r="4.10"/>
<rect fill="#2a3941" x="-3.86" y="-22.15" transform="translate(361.04,362.55) rotate(-45.0)" width="7.72" height="44.30" rx="3.80"/>
<path fill="#e83f00" d="
  M 305.49 380.77
  Q 300.81 376.92 299.16 371.82
  Q 295.47 360.47 303.87 351.21
  Q 307.24 348.79 309.80 347.55
  C 313.07 345.98 317.43 345.44 320.92 346.23
  Q 332.65 348.89 335.77 360.26
  C 337.62 367.02 335.09 375.00 329.73 379.47
  C 323.80 384.42 315.16 386.11 308.23 382.05
  Q 307.04 381.36 305.49 380.77
  Z"
/>
<path fill="#485a65" d="
  M 217.60 347.56
  L 224.74 354.30
  A 1.65 1.65 0.0 0 1 224.74 356.70
  L 217.60 363.44
  A 1.65 1.65 0.0 0 1 214.82 362.24
  L 214.82 348.76
  A 1.65 1.65 0.0 0 1 217.60 347.56
  Z"
/>
<path fill="#2a3941" d="
  M 300.17 347.36
  L 303.87 351.21
  Q 295.47 360.47 299.16 371.82
  Q 300.81 376.92 305.49 380.77
  L 293.32 393.02
  Q 292.34 392.89 291.38 393.14
  A 0.58 0.57 79.4 0 1 290.66 392.64
  C 290.42 390.45 291.20 388.59 291.12 386.47
  C 290.82 378.15 287.52 372.88 281.82 367.15
  Q 281.09 366.42 281.83 365.68
  L 300.17 347.36
  Z"
/>
<ellipse fill="#000000" cx="0.00" cy="0.00" transform="translate(244.29,354.55) rotate(67.0)" rx="4.59" ry="4.30"/>
<path fill="#192327" d="
  M 152.36 369.73
  L 146.68 364.21
  L 156.70 353.96
  Q 159.10 351.51 161.56 353.90
  L 162.58 354.91
  Q 164.90 357.17 162.61 359.47
  L 152.36 369.73
  Z"
/>
<ellipse fill="#000000" cx="0.00" cy="0.00" transform="translate(235.64,363.84) rotate(44.8)" rx="4.01" ry="3.81"/>
<ellipse fill="#e83f00" cx="0.00" cy="0.00" transform="translate(199.92,379.63) rotate(93.3)" rx="17.93" ry="17.63"/>
<path fill="#e83f00" d="
  M 146.68 364.21
  L 152.36 369.73
  L 143.13 378.80
  Q 142.65 379.27 142.16 378.80
  L 137.56 374.25
  Q 137.07 373.77 137.56 373.29
  L 146.68 364.21
  Z"
/>
<circle fill="#000000" cx="347.65" cy="370.54" r="4.99"/>
<circle fill="#000000" cx="228.06" cy="372.92" r="3.69"/>
<circle fill="#485a65" cx="394.93" cy="386.09" r="8.90"/>
<circle fill="#000000" cx="359.79" cy="393.20" r="9.94"/>
<circle fill="#e83f00" cx="126.24" cy="387.08" r="3.66"/>
<circle fill="#000000" cx="337.06" cy="391.00" r="5.20"/>
<circle fill="#000000" cx="229.13" cy="391.20" r="5.15"/>
<circle fill="#000000" cx="171.44" cy="397.83" r="6.52"/>
<circle fill="#000000" cx="310.51" cy="403.27" r="10.37"/>
<rect fill="#e83f00" x="-3.76" y="-3.82" transform="translate(378.10,403.59) rotate(44.0)" width="7.52" height="7.64" rx="1.22"/>
<path fill="#000000" d="
  M 215.43 401.47
  L 221.04 407.23
  A 0.96 0.96 0.0 0 1 221.04 408.57
  L 215.43 414.33
  A 0.96 0.96 0.0 0 1 214.03 414.31
  L 208.71 408.54
  A 0.96 0.96 0.0 0 1 208.71 407.24
  L 214.03 401.48
  A 0.96 0.96 0.0 0 1 215.43 401.47
  Z"
/>
<circle fill="#485a65" cx="338.48" cy="408.99" r="3.43"/>
<circle fill="#e83f00" cx="237.34" cy="410.75" r="3.51"/>
</svg>
